HIERARCHY
ROOT Hips
{
	OFFSET 0 0 0
	CHANNELS 6 Xposition Yposition Zposition Yrotation Xrotation Zrotation
	JOINT Spine
	{
		OFFSET -0 7.69132 -2.45161
		CHANNELS 3 Yrotation Xrotation Zrotation
		JOINT Spine1
		{
			OFFSET -0 7.43975 0
			CHANNELS 3 Yrotation Xrotation Zrotation
			JOINT Spine2
			{
				OFFSET -0 7.43975 0
				CHANNELS 3 Yrotation Xrotation Zrotation
				JOINT Spine3
				{
					OFFSET -0 7.43975 0
					CHANNELS 3 Yrotation Xrotation Zrotation
					JOINT Neck
					{
						OFFSET -0 13.9329 3.45161
						CHANNELS 3 Yrotation Xrotation Zrotation
						JOINT Head
						{
							OFFSET -0 9.61415 0
							CHANNELS 3 Yrotation Xrotation Zrotation
							End Site
							{
								OFFSET 0 15 0
							}
						}
					}
					JOINT LeftShoulder
					{
						OFFSET 1.60236 2.19729 3.20472
						CHANNELS 3 Yrotation Xrotation Zrotation
						JOINT LeftArm
						{
							OFFSET 17.7845 0 0
							CHANNELS 3 Yrotation Xrotation Zrotation
							JOINT LeftForeArm
							{
								OFFSET 22.4513 0 0
								CHANNELS 3 Yrotation Xrotation Zrotation
								JOINT LeftHand
								{
									OFFSET 20.5515 0 0
									CHANNELS 3 Yrotation Xrotation Zrotation
									JOINT LeftHandThumb1
									{
										OFFSET 4.91385 0 2.72801
										CHANNELS 3 Yrotation Xrotation Zrotation
										JOINT LeftHandThumb2
										{
											OFFSET 3 0 1
											CHANNELS 3 Yrotation Xrotation Zrotation
											JOINT LeftHandThumb3
											{
												OFFSET 2.1 0 0
												CHANNELS 3 Yrotation Xrotation Zrotation
												JOINT LeftHandThumb4
												{
													OFFSET 1.305 0 0
													CHANNELS 3 Yrotation Xrotation Zrotation
													End Site
													{
														OFFSET -0 0 0
													}
												}
											}
										}
									}
									JOINT LeftHandIndex1
									{
										OFFSET 9.07627 0 3.52715
										CHANNELS 3 Yrotation Xrotation Zrotation
										JOINT LeftHandIndex2
										{
											OFFSET 3.5 0 0
											CHANNELS 3 Yrotation Xrotation Zrotation
											JOINT LeftHandIndex3
											{
												OFFSET 2.45 0 0
												CHANNELS 3 Yrotation Xrotation Zrotation
												JOINT LeftHandIndex4
												{
													OFFSET 1.5225 0 0
													CHANNELS 3 Yrotation Xrotation Zrotation
													End Site
													{
														OFFSET -0 0 0
													}
												}
											}
										}
									}
									JOINT LeftHandMiddle1
									{
										OFFSET 9.21121 0 1.12806
										CHANNELS 3 Yrotation Xrotation Zrotation
										JOINT LeftHandMiddle2
										{
											OFFSET 4.6 0 0
											CHANNELS 3 Yrotation Xrotation Zrotation
											JOINT LeftHandMiddle3
											{
												OFFSET 3.22 0 0
												CHANNELS 3 Yrotation Xrotation Zrotation
												JOINT LeftHandMiddle4
												{
													OFFSET 2.001 0 0
													CHANNELS 3 Yrotation Xrotation Zrotation
													End Site
													{
														OFFSET -0 0 0
													}
												}
											}
										}
									}
									JOINT LeftHandRing1
									{
										OFFSET 9.04616 0 -1.27103
										CHANNELS 3 Yrotation Xrotation Zrotation
										JOINT LeftHandRing2
										{
											OFFSET 3.75 0 0
											CHANNELS 3 Yrotation Xrotation Zrotation
											JOINT LeftHandRing3
											{
												OFFSET 2.625 0 0
												CHANNELS 3 Yrotation Xrotation Zrotation
												JOINT LeftHandRing4
												{
													OFFSET 1.63125 0 0
													CHANNELS 3 Yrotation Xrotation Zrotation
													End Site
													{
														OFFSET -0 0 0
													}
												}
											}
										}
									}
									JOINT LeftHandPinky1
									{
										OFFSET 8.58111 0 -3.67011
										CHANNELS 3 Yrotation Xrotation Zrotation
										JOINT LeftHandPinky2
										{
											OFFSET 2.875 0 0
											CHANNELS 3 Yrotation Xrotation Zrotation
											JOINT LeftHandPinky3
											{
												OFFSET 2.0125 0 0
												CHANNELS 3 Yrotation Xrotation Zrotation
												JOINT LeftHandPinky4
												{
													OFFSET 1.25062 0 0
													CHANNELS 3 Yrotation Xrotation Zrotation
													End Site
													{
														OFFSET -0 0 0
													}
												}
											}
										}
									}
								}
							}
						}
					}
					JOINT RightShoulder
					{
						OFFSET -1.60236 2.19729 3.20472
						CHANNELS 3 Yrotation Xrotation Zrotation
						JOINT RightArm
						{
							OFFSET -17.7845 0 0
							CHANNELS 3 Yrotation Xrotation Zrotation
							JOINT RightForeArm
							{
								OFFSET -22.4513 0 0
								CHANNELS 3 Yrotation Xrotation Zrotation
								JOINT RightHand
								{
									OFFSET -20.5515 0 0
									CHANNELS 3 Yrotation Xrotation Zrotation
									JOINT RightHandThumb1
									{
										OFFSET -4.4694 0 0.364316
										CHANNELS 3 Yrotation Xrotation Zrotation
										JOINT RightHandThumb2
										{
											OFFSET -3 0 1
											CHANNELS 3 Yrotation Xrotation Zrotation
											JOINT RightHandThumb3
											{
												OFFSET -2.1 0 0
												CHANNELS 3 Yrotation Xrotation Zrotation
												JOINT RightHandThumb4
												{
													OFFSET -1.305 0 0
													CHANNELS 3 Yrotation Xrotation Zrotation
													End Site
													{
														OFFSET -0 0 0
													}
												}
											}
										}
									}
									JOINT RightHandIndex1
									{
										OFFSET -7.92682 0 1.55071
										CHANNELS 3 Yrotation Xrotation Zrotation
										JOINT RightHandIndex2
										{
											OFFSET -3.5 0 0
											CHANNELS 3 Yrotation Xrotation Zrotation
											JOINT RightHandIndex3
											{
												OFFSET -2.45 0 0
												CHANNELS 3 Yrotation Xrotation Zrotation
												JOINT RightHandIndex4
												{
													OFFSET -1.5225 0 0
													CHANNELS 3 Yrotation Xrotation Zrotation
													End Site
													{
														OFFSET -0 0 0
													}
												}
											}
										}
									}
									JOINT RightHandMiddle1
									{
										OFFSET -8.23226 0 0.386205
										CHANNELS 3 Yrotation Xrotation Zrotation
										JOINT RightHandMiddle2
										{
											OFFSET -4.6 0 0
											CHANNELS 3 Yrotation Xrotation Zrotation
											JOINT RightHandMiddle3
											{
												OFFSET -3.22 0 0
												CHANNELS 3 Yrotation Xrotation Zrotation
												JOINT RightHandMiddle4
												{
													OFFSET -2.001 0 0
													CHANNELS 3 Yrotation Xrotation Zrotation
													End Site
													{
														OFFSET -0 0 0
													}
												}
											}
										}
									}
									JOINT RightHandRing1
									{
										OFFSET -8.23771 0 -0.778302
										CHANNELS 3 Yrotation Xrotation Zrotation
										JOINT RightHandRing2
										{
											OFFSET -3.75 0 0
											CHANNELS 3 Yrotation Xrotation Zrotation
											JOINT RightHandRing3
											{
												OFFSET -2.625 0 0
												CHANNELS 3 Yrotation Xrotation Zrotation
												JOINT RightHandRing4
												{
													OFFSET -1.63125 0 0
													CHANNELS 3 Yrotation Xrotation Zrotation
													End Site
													{
														OFFSET -0 0 0
													}
												}
											}
										}
									}
									JOINT RightHandPinky1
									{
										OFFSET -7.94315 0 -1.94281
										CHANNELS 3 Yrotation Xrotation Zrotation
										JOINT RightHandPinky2
										{
											OFFSET -2.875 0 0
											CHANNELS 3 Yrotation Xrotation Zrotation
											JOINT RightHandPinky3
											{
												OFFSET -2.0125 0 0
												CHANNELS 3 Yrotation Xrotation Zrotation
												JOINT RightHandPinky4
												{
													OFFSET -1.25062 0 0
													CHANNELS 3 Yrotation Xrotation Zrotation
													End Site
													{
														OFFSET -0 0 0
													}
												}
											}
										}
									}
								}
							}
						}
					}
				}
			}
		}
	}
	JOINT LeftUpLeg
	{
		OFFSET 9.61415 -3.20472 3
		CHANNELS 3 Yrotation Xrotation Zrotation
		JOINT LeftLeg
		{
			OFFSET -0 -42.2921 2.2433
			CHANNELS 3 Yrotation Xrotation Zrotation
			JOINT LeftFoot
			{
				OFFSET -0 -34.6503 -2.2433
				CHANNELS 3 Yrotation Xrotation Zrotation
				JOINT LeftToeBase
				{
					OFFSET -0 -8.30332 8.5187
					CHANNELS 3 Yrotation Xrotation Zrotation
					End Site
					{
						OFFSET 0 0 5
					}
				}
			}
		}
	}
	JOINT RightUpLeg
	{
		OFFSET -9.61415 -3.20472 3
		CHANNELS 3 Yrotation Xrotation Zrotation
		JOINT RightLeg
		{
			OFFSET -0 -42.2921 2.2433
			CHANNELS 3 Yrotation Xrotation Zrotation
			JOINT RightFoot
			{
				OFFSET -0 -34.6503 -2.2433
				CHANNELS 3 Yrotation Xrotation Zrotation
				JOINT RightToeBase
				{
					OFFSET -0 -8.30332 8.5187
					CHANNELS 3 Yrotation Xrotation Zrotation
					End Site
					{
						OFFSET 0 0 5
					}
				}
			}
		}
	}
}
MOTION
Frames: 4
Frame Time: 0.0047619
0 89.415849 0 0 0 0 0 0 0 0 0 0 0 0 0 0 0 0 0 0 0 0 0 0 0 0 0 0 0 0 0 0 0 0 0 0 0 0 0 0 0 0 0 0 0 0 0 0 0 0 0 0 0 0 0 0 0 0 0 0 0 0 0 0 0 0 0 0 0 0 0 0 0 0 0 0 0 0 0 0 0 0 0 0 0 0 0 0 0 0 0 0 0 0 0 0 0 0 0 0 0 0 0 0 0 0 0 0 0 0 0 0 0 0 0 0 0 0 0 0 0 0 0 0 0 0 0 0 0 0 0 0 0 0 0 0 0 0 0 0 0 0 0 0 0 0 0 0 0 0 0 0 0 0 0 0 0 0 0 0 0 0 0 0 0 0 0 0 0 0 0 0 0 0 0 0 0 0 0 0 0 0 0 0 0 0 0 0 0 0 0 0
-24.071147 89.292554 13.603268 -1.172587 1.578017 1.915871 1.239074 0.509989 0.059961 0.967479 0.536666 -0.036406 0.216928 0.580097 -0.145646 -0.081681 0.589471 -0.267491 0.621709 -0.185220 -4.240410 -0.138360 -6.037399 3.295210 7.933961 1.939319 9.044236 -8.791640 5.251843 1.488267 -12.306309 3.539607 0.271038 7.035878 2.110384 -32.609608 22.649496 -3.182501 -7.950841 26.082925 -3.379116 -9.230791 -18.447114 -8.137915 -4.418668 -0.000005 -0.000005 1.421975 -0.000005 -0.000005 1.421975 -0.000016 -0.000010 1.137580 -0.000006 0.000000 0.568791 0.000001 -0.000003 -3.639443 0.000001 -0.000003 -3.639443 -0.000003 -0.000003 -2.911552 -0.000002 0.000001 -1.455780 0.000003 0.000000 -0.092612 0.000003 0.000000 -0.092612 -0.000007 -0.000002 -0.074090 -0.000003 -0.000003 -0.037047 -0.000004 -0.000004 2.408098 -0.000004 -0.000004 2.408098 0.000006 -0.000002 1.926475 -0.000008 -0.000003 0.963238 -159.061945 -0.046263 -179.749632 -5.710697 2.602472 -14.718892 9.717616 0.018283 2.090516 9.650796 22.325518 -0.168102 -59.269645 -21.515058 10.920843 6.051169 1.943417 -5.556336 6.942579 2.284962 -6.371880 -39.093882 -2.249213 4.631538 -0.000000 0.000001 -12.500003 -0.000000 0.000001 -12.500003 0.000002 -0.000002 -9.999999 0.000002 0.000002 -5.000001 0.000005 0.000003 -8.516719 0.000005 0.000003 -8.516719 0.000005 0.000001 -6.813372 0.000008 -0.000001 -3.406685 0.000016 0.000004 5.284403 0.000016 0.000004 5.284403 0.000005 0.000003 4.227524 0.000009 0.000002 2.113763 -0.000019 -0.000004 28.767209 -0.000019 -0.000004 28.767209 -0.000012 -0.000014 23.013781 -0.000003 -0.000005 11.506862 22.649496 -3.182501 -7.950841 9.944860 4.965651 1.328711 0.000000 -0.336765 0.000000 0.193303 1.675457 0.702257 0.000000 -9.738301 0.000000 -7.158695 6.061631 -4.778921 0.000000 -0.823310 0.000000 2.296137 -3.675679 0.657109 0.000000 -4.705075 0.000000
-24.070015 89.289130 13.610001 -1.178455 1.583666 1.923921 1.229323 0.497895 0.053760 0.959039 0.535806 -0.040698 0.216380 0.587479 -0.147117 -0.081481 0.591134 -0.266406 0.627136 -0.167663 -4.233556 -0.137049 -6.083506 3.279611 7.934377 1.930263 9.058004 -8.763961 5.203546 1.484931 -12.319562 3.480781 0.273619 7.027498 2.217170 -32.628312 22.649496 -3.182501 -7.950841 26.082925 -3.379116 -9.230791 -18.447114 -8.137915 -4.418668 -0.000005 -0.000005 1.421975 -0.000005 -0.000005 1.421975 -0.000016 -0.000010 1.137580 -0.000006 0.000000 0.568791 0.000001 -0.000003 -3.639443 0.000001 -0.000003 -3.639443 -0.000003 -0.000003 -2.911552 -0.000002 0.000001 -1.455780 0.000003 0.000000 -0.092612 0.000003 0.000000 -0.092612 -0.000007 -0.000002 -0.074090 -0.000003 -0.000003 -0.037047 -0.000004 -0.000004 2.408098 -0.000004 -0.000004 2.408098 0.000006 -0.000002 1.926475 -0.000008 -0.000003 0.963238 -159.061945 -0.046263 -179.749632 -5.702119 2.604767 -14.739207 9.724213 0.018152 2.111621 9.650384 22.307582 -0.189008 -59.263008 -21.498403 10.922000 6.051169 1.943417 -5.556336 6.942579 2.284962 -6.371880 -39.093882 -2.249213 4.631538 -0.000000 0.000001 -12.500003 -0.000000 0.000001 -12.500003 0.000002 -0.000002 -9.999999 0.000002 0.000002 -5.000001 0.000005 0.000003 -8.516719 0.000005 0.000003 -8.516719 0.000005 0.000001 -6.813372 0.000008 -0.000001 -3.406685 0.000016 0.000004 5.284403 0.000016 0.000004 5.284403 0.000005 0.000003 4.227524 0.000009 0.000002 2.113763 -0.000019 -0.000004 28.767209 -0.000019 -0.000004 28.767209 -0.000012 -0.000014 23.013781 -0.000003 -0.000005 11.506862 22.649496 -3.182501 -7.950841 9.955468 4.965394 1.318563 0.000000 -0.330427 0.000000 0.141189 1.657123 0.724956 0.000000 -9.765493 0.000000 -7.177115 6.064842 -4.791692 0.000000 -0.830178 0.000000 2.302045 -3.709504 0.690518 0.000000 -4.659797 0.000000
-24.066100 89.290509 13.614360 -1.187548 1.585678 1.921000 1.222746 0.503746 0.065999 0.952051 0.529685 -0.033531 0.223749 0.579034 -0.145628 -0.073903 0.596856 -0.277981 0.617819 -0.193147 -4.256311 -0.141418 -6.041126 3.293957 7.929860 1.918477 9.050385 -8.762032 5.217143 1.492911 -12.299931 3.483440 0.276127 6.993436 2.261367 -32.768051 22.690193 -3.224853 -7.925306 26.130615 -3.428062 -9.203216 -18.588380 -8.150320 -4.401764 -0.000003 0.000003 1.471911 -0.000003 0.000003 1.471911 -0.000014 0.000003 1.177531 -0.000007 0.000001 0.588764 -0.000012 0.000005 -3.564334 -0.000012 0.000005 -3.564334 -0.000007 0.000005 -2.851466 -0.000006 0.000001 -1.425734 -0.000001 -0.000000 -0.091121 -0.000001 -0.000000 -0.091121 0.000007 0.000001 -0.072896 -0.000012 -0.000003 -0.036447 -0.000020 0.000006 2.519807 -0.000020 0.000006 2.519807 -0.000014 0.000007 2.015846 -0.000008 0.000003 1.007922 -159.062127 -0.046262 -179.749634 -5.704384 2.600104 -14.738717 9.712723 0.003515 2.082476 9.674352 22.326381 -0.170840 -59.257842 -21.503950 10.921218 6.061672 1.941468 -5.571331 6.954617 2.282943 -6.389108 -39.145872 -2.230708 4.634555 0.000002 0.000000 -12.500001 0.000002 0.000000 -12.500001 0.000000 0.000002 -10.000000 -0.000002 -0.000002 -4.999999 -0.000002 0.000001 -8.628843 -0.000002 0.000001 -8.628843 0.000002 0.000001 -6.903071 -0.000004 -0.000000 -3.451538 0.000002 0.000001 5.271240 0.000002 0.000001 5.271240 -0.000001 -0.000000 4.216990 0.000005 0.000001 2.108499 -0.000002 0.000001 28.850444 -0.000002 0.000001 28.850444 -0.000003 -0.000001 23.080358 0.000000 -0.000001 11.540180 22.690193 -3.224853 -7.925306 9.968305 4.967589 1.315368 0.000000 -0.330100 0.000000 0.134674 1.663379 0.761030 0.000000 -9.756898 0.000000 -7.182349 6.062608 -4.791153 0.000000 -0.834948 0.000000 2.329916 -3.687577 0.671145 0.000000 -4.683300 0.000000
